<mxfile host="app.diagrams.net" modified="2022-06-06T19:32:24.884Z" agent="5.0 (Macintosh; Intel Mac OS X 10_15_7) AppleWebKit/605.1.15 (KHTML, like Gecko) Version/15.4 Safari/605.1.15" etag="9TkVk-1ww2416qEXCKjk" version="19.0.0" type="github">
  <diagram id="C5RBs43oDa-KdzZeNtuy" name="Page-1">
    <mxGraphModel dx="1181" dy="769" grid="1" gridSize="10" guides="1" tooltips="1" connect="1" arrows="1" fold="1" page="1" pageScale="1" pageWidth="827" pageHeight="1169" math="0" shadow="0">
      <root>
        <mxCell id="WIyWlLk6GJQsqaUBKTNV-0" />
        <mxCell id="WIyWlLk6GJQsqaUBKTNV-1" parent="WIyWlLk6GJQsqaUBKTNV-0" />
        <mxCell id="zkfFHV4jXpPFQw0GAbJ--13" value="Havayolu Sirketi" style="swimlane;fontStyle=0;align=center;verticalAlign=top;childLayout=stackLayout;horizontal=1;startSize=26;horizontalStack=0;resizeParent=1;resizeLast=0;collapsible=1;marginBottom=0;rounded=0;shadow=0;strokeWidth=1;" parent="WIyWlLk6GJQsqaUBKTNV-1" vertex="1">
          <mxGeometry x="339" y="160" width="160" height="86" as="geometry">
            <mxRectangle x="340" y="380" width="170" height="26" as="alternateBounds" />
          </mxGeometry>
        </mxCell>
        <mxCell id="zkfFHV4jXpPFQw0GAbJ--14" value="Şirket Adı" style="text;align=left;verticalAlign=top;spacingLeft=4;spacingRight=4;overflow=hidden;rotatable=0;points=[[0,0.5],[1,0.5]];portConstraint=eastwest;" parent="zkfFHV4jXpPFQw0GAbJ--13" vertex="1">
          <mxGeometry y="26" width="160" height="26" as="geometry" />
        </mxCell>
        <mxCell id="zkfFHV4jXpPFQw0GAbJ--15" value="" style="line;html=1;strokeWidth=1;align=left;verticalAlign=middle;spacingTop=-1;spacingLeft=3;spacingRight=3;rotatable=0;labelPosition=right;points=[];portConstraint=eastwest;" parent="zkfFHV4jXpPFQw0GAbJ--13" vertex="1">
          <mxGeometry y="52" width="160" height="8" as="geometry" />
        </mxCell>
        <mxCell id="6_8U0CVvlDeDWUyQjSyd-0" value="ucusAyarla(id)" style="text;align=left;verticalAlign=top;spacingLeft=4;spacingRight=4;overflow=hidden;rotatable=0;points=[[0,0.5],[1,0.5]];portConstraint=eastwest;" vertex="1" parent="zkfFHV4jXpPFQw0GAbJ--13">
          <mxGeometry y="60" width="160" height="26" as="geometry" />
        </mxCell>
        <mxCell id="6_8U0CVvlDeDWUyQjSyd-1" value="Uçak" style="swimlane;fontStyle=0;align=center;verticalAlign=top;childLayout=stackLayout;horizontal=1;startSize=26;horizontalStack=0;resizeParent=1;resizeLast=0;collapsible=1;marginBottom=0;rounded=0;shadow=0;strokeWidth=1;" vertex="1" parent="WIyWlLk6GJQsqaUBKTNV-1">
          <mxGeometry x="354" y="352" width="130" height="130" as="geometry">
            <mxRectangle x="340" y="380" width="170" height="26" as="alternateBounds" />
          </mxGeometry>
        </mxCell>
        <mxCell id="6_8U0CVvlDeDWUyQjSyd-2" value="Uçak Tipi" style="text;align=left;verticalAlign=top;spacingLeft=4;spacingRight=4;overflow=hidden;rotatable=0;points=[[0,0.5],[1,0.5]];portConstraint=eastwest;" vertex="1" parent="6_8U0CVvlDeDWUyQjSyd-1">
          <mxGeometry y="26" width="130" height="26" as="geometry" />
        </mxCell>
        <mxCell id="6_8U0CVvlDeDWUyQjSyd-4" value="Pilot Sayısı" style="text;align=left;verticalAlign=top;spacingLeft=4;spacingRight=4;overflow=hidden;rotatable=0;points=[[0,0.5],[1,0.5]];portConstraint=eastwest;" vertex="1" parent="6_8U0CVvlDeDWUyQjSyd-1">
          <mxGeometry y="52" width="130" height="26" as="geometry" />
        </mxCell>
        <mxCell id="6_8U0CVvlDeDWUyQjSyd-3" value="" style="line;html=1;strokeWidth=1;align=left;verticalAlign=middle;spacingTop=-1;spacingLeft=3;spacingRight=3;rotatable=0;labelPosition=right;points=[];portConstraint=eastwest;" vertex="1" parent="6_8U0CVvlDeDWUyQjSyd-1">
          <mxGeometry y="78" width="130" height="8" as="geometry" />
        </mxCell>
        <mxCell id="6_8U0CVvlDeDWUyQjSyd-5" value="calistir()&#xa;onarimdaKal()" style="text;align=left;verticalAlign=top;spacingLeft=4;spacingRight=4;overflow=hidden;rotatable=0;points=[[0,0.5],[1,0.5]];portConstraint=eastwest;" vertex="1" parent="6_8U0CVvlDeDWUyQjSyd-1">
          <mxGeometry y="86" width="130" height="44" as="geometry" />
        </mxCell>
        <mxCell id="6_8U0CVvlDeDWUyQjSyd-6" value="Pilot" style="swimlane;fontStyle=0;align=center;verticalAlign=top;childLayout=stackLayout;horizontal=1;startSize=26;horizontalStack=0;resizeParent=1;resizeLast=0;collapsible=1;marginBottom=0;rounded=0;shadow=0;strokeWidth=1;" vertex="1" parent="WIyWlLk6GJQsqaUBKTNV-1">
          <mxGeometry x="579" y="352" width="130" height="80" as="geometry">
            <mxRectangle x="340" y="380" width="170" height="26" as="alternateBounds" />
          </mxGeometry>
        </mxCell>
        <mxCell id="6_8U0CVvlDeDWUyQjSyd-7" value="Pilot Tipi" style="text;align=left;verticalAlign=top;spacingLeft=4;spacingRight=4;overflow=hidden;rotatable=0;points=[[0,0.5],[1,0.5]];portConstraint=eastwest;" vertex="1" parent="6_8U0CVvlDeDWUyQjSyd-6">
          <mxGeometry y="26" width="130" height="26" as="geometry" />
        </mxCell>
        <mxCell id="6_8U0CVvlDeDWUyQjSyd-8" value="Deneyim Seviyesi" style="text;align=left;verticalAlign=top;spacingLeft=4;spacingRight=4;overflow=hidden;rotatable=0;points=[[0,0.5],[1,0.5]];portConstraint=eastwest;" vertex="1" parent="6_8U0CVvlDeDWUyQjSyd-6">
          <mxGeometry y="52" width="130" height="26" as="geometry" />
        </mxCell>
        <mxCell id="6_8U0CVvlDeDWUyQjSyd-11" value="Havaalanı" style="swimlane;fontStyle=0;align=center;verticalAlign=top;childLayout=stackLayout;horizontal=1;startSize=26;horizontalStack=0;resizeParent=1;resizeLast=0;collapsible=1;marginBottom=0;rounded=0;shadow=0;strokeWidth=1;" vertex="1" parent="WIyWlLk6GJQsqaUBKTNV-1">
          <mxGeometry x="119" y="352" width="130" height="80" as="geometry">
            <mxRectangle x="340" y="380" width="170" height="26" as="alternateBounds" />
          </mxGeometry>
        </mxCell>
        <mxCell id="6_8U0CVvlDeDWUyQjSyd-12" value="ID" style="text;align=left;verticalAlign=top;spacingLeft=4;spacingRight=4;overflow=hidden;rotatable=0;points=[[0,0.5],[1,0.5]];portConstraint=eastwest;" vertex="1" parent="6_8U0CVvlDeDWUyQjSyd-11">
          <mxGeometry y="26" width="130" height="26" as="geometry" />
        </mxCell>
        <mxCell id="6_8U0CVvlDeDWUyQjSyd-13" value="Adı" style="text;align=left;verticalAlign=top;spacingLeft=4;spacingRight=4;overflow=hidden;rotatable=0;points=[[0,0.5],[1,0.5]];portConstraint=eastwest;" vertex="1" parent="6_8U0CVvlDeDWUyQjSyd-11">
          <mxGeometry y="52" width="130" height="26" as="geometry" />
        </mxCell>
        <mxCell id="6_8U0CVvlDeDWUyQjSyd-16" value="1" style="endArrow=open;html=1;endSize=12;startArrow=diamondThin;startSize=14;startFill=0;edgeStyle=orthogonalEdgeStyle;align=left;verticalAlign=bottom;rounded=0;fontSize=12;entryX=0.5;entryY=0;entryDx=0;entryDy=0;exitX=0.506;exitY=0.962;exitDx=0;exitDy=0;exitPerimeter=0;" edge="1" parent="WIyWlLk6GJQsqaUBKTNV-1" source="6_8U0CVvlDeDWUyQjSyd-0" target="6_8U0CVvlDeDWUyQjSyd-1">
          <mxGeometry x="-0.5283" y="11" relative="1" as="geometry">
            <mxPoint x="419" y="252" as="sourcePoint" />
            <mxPoint x="439" y="222" as="targetPoint" />
            <Array as="points">
              <mxPoint x="420" y="302" />
              <mxPoint x="419" y="302" />
            </Array>
            <mxPoint as="offset" />
          </mxGeometry>
        </mxCell>
        <mxCell id="6_8U0CVvlDeDWUyQjSyd-17" value="*" style="text;html=1;align=center;verticalAlign=middle;resizable=0;points=[];autosize=1;strokeColor=none;fillColor=none;fontSize=12;" vertex="1" parent="WIyWlLk6GJQsqaUBKTNV-1">
          <mxGeometry x="419" y="322" width="20" height="20" as="geometry" />
        </mxCell>
        <mxCell id="6_8U0CVvlDeDWUyQjSyd-18" value="" style="endArrow=open;endFill=1;endSize=12;html=1;rounded=0;fontSize=12;entryX=0.5;entryY=0;entryDx=0;entryDy=0;" edge="1" parent="WIyWlLk6GJQsqaUBKTNV-1" target="6_8U0CVvlDeDWUyQjSyd-6">
          <mxGeometry width="160" relative="1" as="geometry">
            <mxPoint x="419" y="302" as="sourcePoint" />
            <mxPoint x="579" y="302" as="targetPoint" />
            <Array as="points">
              <mxPoint x="644" y="302" />
            </Array>
          </mxGeometry>
        </mxCell>
        <mxCell id="6_8U0CVvlDeDWUyQjSyd-19" value="" style="endArrow=open;endFill=1;endSize=12;html=1;rounded=0;fontSize=12;exitX=1.008;exitY=-0.077;exitDx=0;exitDy=0;exitPerimeter=0;entryX=0.031;entryY=-0.038;entryDx=0;entryDy=0;entryPerimeter=0;" edge="1" parent="WIyWlLk6GJQsqaUBKTNV-1" source="6_8U0CVvlDeDWUyQjSyd-4" target="6_8U0CVvlDeDWUyQjSyd-8">
          <mxGeometry width="160" relative="1" as="geometry">
            <mxPoint x="489" y="403" as="sourcePoint" />
            <mxPoint x="560" y="430" as="targetPoint" />
          </mxGeometry>
        </mxCell>
        <mxCell id="6_8U0CVvlDeDWUyQjSyd-20" value="1..2" style="text;html=1;align=center;verticalAlign=middle;resizable=0;points=[];autosize=1;strokeColor=none;fillColor=none;fontSize=12;" vertex="1" parent="WIyWlLk6GJQsqaUBKTNV-1">
          <mxGeometry x="539" y="382" width="40" height="20" as="geometry" />
        </mxCell>
        <mxCell id="6_8U0CVvlDeDWUyQjSyd-21" value="1" style="text;html=1;align=center;verticalAlign=middle;resizable=0;points=[];autosize=1;strokeColor=none;fillColor=none;fontSize=12;" vertex="1" parent="WIyWlLk6GJQsqaUBKTNV-1">
          <mxGeometry x="489" y="382" width="20" height="20" as="geometry" />
        </mxCell>
        <mxCell id="6_8U0CVvlDeDWUyQjSyd-22" value="Uçuş" style="swimlane;fontStyle=0;align=center;verticalAlign=top;childLayout=stackLayout;horizontal=1;startSize=26;horizontalStack=0;resizeParent=1;resizeLast=0;collapsible=1;marginBottom=0;rounded=0;shadow=0;strokeWidth=1;" vertex="1" parent="WIyWlLk6GJQsqaUBKTNV-1">
          <mxGeometry x="269" y="542" width="130" height="152" as="geometry">
            <mxRectangle x="340" y="380" width="170" height="26" as="alternateBounds" />
          </mxGeometry>
        </mxCell>
        <mxCell id="6_8U0CVvlDeDWUyQjSyd-23" value="ID&#xa;Pilot&#xa;Kalkış Saati&#xa;İniş Saati" style="text;align=left;verticalAlign=top;spacingLeft=4;spacingRight=4;overflow=hidden;rotatable=0;points=[[0,0.5],[1,0.5]];portConstraint=eastwest;" vertex="1" parent="6_8U0CVvlDeDWUyQjSyd-22">
          <mxGeometry y="26" width="130" height="74" as="geometry" />
        </mxCell>
        <mxCell id="6_8U0CVvlDeDWUyQjSyd-25" value="" style="line;html=1;strokeWidth=1;align=left;verticalAlign=middle;spacingTop=-1;spacingLeft=3;spacingRight=3;rotatable=0;labelPosition=right;points=[];portConstraint=eastwest;" vertex="1" parent="6_8U0CVvlDeDWUyQjSyd-22">
          <mxGeometry y="100" width="130" height="8" as="geometry" />
        </mxCell>
        <mxCell id="6_8U0CVvlDeDWUyQjSyd-26" value="kalkis(havaalani_ID)&#xa;inis(havaalani_ID)" style="text;align=left;verticalAlign=top;spacingLeft=4;spacingRight=4;overflow=hidden;rotatable=0;points=[[0,0.5],[1,0.5]];portConstraint=eastwest;" vertex="1" parent="6_8U0CVvlDeDWUyQjSyd-22">
          <mxGeometry y="108" width="130" height="44" as="geometry" />
        </mxCell>
        <mxCell id="6_8U0CVvlDeDWUyQjSyd-28" value="" style="endArrow=diamond;endFill=1;endSize=12;html=1;rounded=0;fontSize=12;sourcePerimeterSpacing=0;targetPerimeterSpacing=0;entryX=-0.031;entryY=1.192;entryDx=0;entryDy=0;entryPerimeter=0;exitX=0.485;exitY=1.192;exitDx=0;exitDy=0;exitPerimeter=0;startArrow=open;startFill=0;startSize=12;" edge="1" parent="WIyWlLk6GJQsqaUBKTNV-1" source="6_8U0CVvlDeDWUyQjSyd-13">
          <mxGeometry width="160" relative="1" as="geometry">
            <mxPoint x="429" y="402" as="sourcePoint" />
            <mxPoint x="264.97" y="624.992" as="targetPoint" />
            <Array as="points">
              <mxPoint x="182" y="625" />
            </Array>
          </mxGeometry>
        </mxCell>
        <mxCell id="6_8U0CVvlDeDWUyQjSyd-29" value="1" style="endArrow=open;html=1;endSize=12;startArrow=diamondThin;startSize=14;startFill=0;edgeStyle=orthogonalEdgeStyle;align=left;verticalAlign=bottom;rounded=0;fontSize=12;sourcePerimeterSpacing=0;targetPerimeterSpacing=0;entryX=0.454;entryY=1.038;entryDx=0;entryDy=0;entryPerimeter=0;" edge="1" parent="WIyWlLk6GJQsqaUBKTNV-1" target="6_8U0CVvlDeDWUyQjSyd-8">
          <mxGeometry x="-1" y="3" relative="1" as="geometry">
            <mxPoint x="399" y="622" as="sourcePoint" />
            <mxPoint x="639" y="442" as="targetPoint" />
            <Array as="points">
              <mxPoint x="638" y="622" />
            </Array>
          </mxGeometry>
        </mxCell>
        <mxCell id="6_8U0CVvlDeDWUyQjSyd-30" value="1..2" style="text;html=1;align=center;verticalAlign=middle;resizable=0;points=[];autosize=1;strokeColor=none;fillColor=none;fontSize=12;" vertex="1" parent="WIyWlLk6GJQsqaUBKTNV-1">
          <mxGeometry x="599" y="442" width="40" height="20" as="geometry" />
        </mxCell>
        <mxCell id="6_8U0CVvlDeDWUyQjSyd-32" value="" style="endArrow=diamondThin;endFill=1;endSize=12;html=1;rounded=0;fontSize=12;sourcePerimeterSpacing=0;targetPerimeterSpacing=0;startArrow=open;startFill=0;startSize=12;exitX=1;exitY=0.5;exitDx=0;exitDy=0;" edge="1" parent="WIyWlLk6GJQsqaUBKTNV-1" source="6_8U0CVvlDeDWUyQjSyd-4">
          <mxGeometry width="160" relative="1" as="geometry">
            <mxPoint x="490" y="417" as="sourcePoint" />
            <mxPoint x="579" y="416.5" as="targetPoint" />
          </mxGeometry>
        </mxCell>
        <mxCell id="6_8U0CVvlDeDWUyQjSyd-33" value="1" style="text;html=1;align=center;verticalAlign=middle;resizable=0;points=[];autosize=1;strokeColor=none;fillColor=none;fontSize=12;" vertex="1" parent="WIyWlLk6GJQsqaUBKTNV-1">
          <mxGeometry x="500" y="420" width="20" height="20" as="geometry" />
        </mxCell>
        <mxCell id="6_8U0CVvlDeDWUyQjSyd-34" value="1..2" style="text;html=1;align=center;verticalAlign=middle;resizable=0;points=[];autosize=1;strokeColor=none;fillColor=none;fontSize=12;" vertex="1" parent="WIyWlLk6GJQsqaUBKTNV-1">
          <mxGeometry x="540" y="420" width="40" height="20" as="geometry" />
        </mxCell>
        <mxCell id="6_8U0CVvlDeDWUyQjSyd-35" value="*" style="text;html=1;align=center;verticalAlign=middle;resizable=0;points=[];autosize=1;strokeColor=none;fillColor=none;fontSize=12;" vertex="1" parent="WIyWlLk6GJQsqaUBKTNV-1">
          <mxGeometry x="640" y="320" width="20" height="20" as="geometry" />
        </mxCell>
        <mxCell id="6_8U0CVvlDeDWUyQjSyd-36" value="1..2" style="text;html=1;align=center;verticalAlign=middle;resizable=0;points=[];autosize=1;strokeColor=none;fillColor=none;fontSize=12;" vertex="1" parent="WIyWlLk6GJQsqaUBKTNV-1">
          <mxGeometry x="180" y="450" width="40" height="20" as="geometry" />
        </mxCell>
        <mxCell id="6_8U0CVvlDeDWUyQjSyd-37" value="1" style="text;html=1;align=center;verticalAlign=middle;resizable=0;points=[];autosize=1;strokeColor=none;fillColor=none;fontSize=12;" vertex="1" parent="WIyWlLk6GJQsqaUBKTNV-1">
          <mxGeometry x="229" y="600" width="20" height="20" as="geometry" />
        </mxCell>
      </root>
    </mxGraphModel>
  </diagram>
</mxfile>
